<mxfile host="app.diagrams.net" agent="Mozilla/5.0 (Windows NT 10.0; Win64; x64) AppleWebKit/537.36 (KHTML, like Gecko) Chrome/130.0.0.0 Safari/537.36" version="24.8.4">
  <diagram name="Page-1" id="edf60f1a-56cd-e834-aa8a-f176f3a09ee4">
    <mxGraphModel dx="993" dy="573" grid="1" gridSize="10" guides="1" tooltips="1" connect="1" arrows="1" fold="1" page="1" pageScale="1" pageWidth="1100" pageHeight="850" background="#ffffff" math="0" shadow="0">
      <root>
        <mxCell id="0" />
        <mxCell id="1" parent="0" />
        <mxCell id="60e70716793133e9-2" value="Unauthorized User or Anyone coming to our&amp;nbsp;&lt;div&gt;site!&lt;div&gt;&lt;br&gt;&lt;/div&gt;&lt;div&gt;&lt;br&gt;&lt;/div&gt;&lt;/div&gt;" style="shape=trapezoid;whiteSpace=wrap;html=1;rounded=0;shadow=1;labelBackgroundColor=none;strokeWidth=1;fontFamily=Verdana;fontSize=8;align=center;flipV=1;fillColor=#fff2cc;strokeColor=#d6b656;" parent="1" vertex="1">
          <mxGeometry x="1096" y="245" width="120" height="60" as="geometry" />
        </mxCell>
        <mxCell id="60e70716793133e9-33" value="Yes" style="edgeStyle=orthogonalEdgeStyle;rounded=0;html=1;labelBackgroundColor=none;startSize=5;endArrow=classicThin;endFill=1;endSize=5;jettySize=auto;orthogonalLoop=1;strokeWidth=1;fontFamily=Verdana;fontSize=8" parent="1" source="60e70716793133e9-5" target="60e70716793133e9-7" edge="1">
          <mxGeometry x="-0.7778" y="10" relative="1" as="geometry">
            <mxPoint as="offset" />
          </mxGeometry>
        </mxCell>
        <mxCell id="60e70716793133e9-5" value="Logged in Customer" style="rhombus;whiteSpace=wrap;html=1;rounded=0;shadow=1;labelBackgroundColor=none;strokeWidth=1;fontFamily=Verdana;fontSize=8;align=center;" parent="1" vertex="1">
          <mxGeometry x="1506" y="1100" width="100" height="60" as="geometry" />
        </mxCell>
        <mxCell id="60e70716793133e9-34" value="Yes" style="edgeStyle=orthogonalEdgeStyle;rounded=0;html=1;labelBackgroundColor=none;startSize=5;endArrow=classicThin;endFill=1;endSize=5;jettySize=auto;orthogonalLoop=1;strokeWidth=1;fontFamily=Verdana;fontSize=8" parent="1" source="60e70716793133e9-7" target="60e70716793133e9-8" edge="1">
          <mxGeometry x="-0.6667" y="10" relative="1" as="geometry">
            <mxPoint as="offset" />
          </mxGeometry>
        </mxCell>
        <mxCell id="60e70716793133e9-7" value="Searching for Properties" style="rhombus;whiteSpace=wrap;html=1;rounded=0;shadow=1;labelBackgroundColor=none;strokeWidth=1;fontFamily=Verdana;fontSize=8;align=center;" parent="1" vertex="1">
          <mxGeometry x="1776" y="1145" width="120" height="75" as="geometry" />
        </mxCell>
        <mxCell id="60e70716793133e9-8" value="Properties View" style="rounded=1;whiteSpace=wrap;html=1;shadow=1;labelBackgroundColor=none;strokeWidth=1;fontFamily=Verdana;fontSize=8;align=center;" parent="1" vertex="1">
          <mxGeometry x="1986" y="1162.5" width="100" height="40" as="geometry" />
        </mxCell>
        <mxCell id="Z8Qo_mUcmgDimk4ZtV1X-5" value="Logged in as Admin" style="rhombus;whiteSpace=wrap;html=1;rounded=0;shadow=1;labelBackgroundColor=none;strokeWidth=1;fontFamily=Verdana;fontSize=8;align=center;" parent="1" vertex="1">
          <mxGeometry x="826" y="1275" width="100" height="60" as="geometry" />
        </mxCell>
        <mxCell id="Z8Qo_mUcmgDimk4ZtV1X-17" value="Check on Reservation" style="whiteSpace=wrap;html=1;rounded=0;shadow=1;labelBackgroundColor=none;strokeWidth=1;fontFamily=Verdana;fontSize=8;align=center;" parent="1" vertex="1">
          <mxGeometry x="1796" y="1270" width="80" height="40" as="geometry" />
        </mxCell>
        <mxCell id="gYn13_rnFWAkC_ZhPSv--5" value="View Pending Property Approvals?" style="whiteSpace=wrap;html=1;rounded=0;shadow=1;labelBackgroundColor=none;strokeWidth=1;fontFamily=Verdana;fontSize=8;align=center;" parent="1" vertex="1">
          <mxGeometry x="1206" y="1357" width="110" height="30" as="geometry" />
        </mxCell>
        <mxCell id="gYn13_rnFWAkC_ZhPSv--6" value="View the Review Disputes" style="whiteSpace=wrap;html=1;rounded=0;shadow=1;labelBackgroundColor=none;strokeWidth=1;fontFamily=Verdana;fontSize=8;align=center;" parent="1" vertex="1">
          <mxGeometry x="951" y="1357" width="110" height="30" as="geometry" />
        </mxCell>
        <mxCell id="gYn13_rnFWAkC_ZhPSv--8" value="Unauthorized Home/Index" style="rounded=1;whiteSpace=wrap;html=1;shadow=1;labelBackgroundColor=none;strokeWidth=1;fontFamily=Verdana;fontSize=8;align=center;fillColor=#fff2cc;strokeColor=#d6b656;" parent="1" vertex="1">
          <mxGeometry x="1106" y="335" width="100" height="40" as="geometry" />
        </mxCell>
        <mxCell id="gYn13_rnFWAkC_ZhPSv--11" value="Yes" style="text;html=1;align=center;verticalAlign=middle;resizable=0;points=[];autosize=1;strokeColor=none;fillColor=none;" parent="1" vertex="1">
          <mxGeometry x="986" y="1275" width="40" height="30" as="geometry" />
        </mxCell>
        <mxCell id="gYn13_rnFWAkC_ZhPSv--12" value="" style="endArrow=classic;html=1;rounded=0;exitX=1;exitY=0.5;exitDx=0;exitDy=0;entryX=0;entryY=0.5;entryDx=0;entryDy=0;" parent="1" source="Z8Qo_mUcmgDimk4ZtV1X-5" target="gYn13_rnFWAkC_ZhPSv--13" edge="1">
          <mxGeometry width="50" height="50" relative="1" as="geometry">
            <mxPoint x="976" y="1297" as="sourcePoint" />
            <mxPoint x="1046" y="1297" as="targetPoint" />
            <Array as="points" />
          </mxGeometry>
        </mxCell>
        <mxCell id="gYn13_rnFWAkC_ZhPSv--13" value="Admin Dashboard" style="rounded=1;whiteSpace=wrap;html=1;shadow=1;labelBackgroundColor=none;strokeWidth=1;fontFamily=Verdana;fontSize=8;align=center;" parent="1" vertex="1">
          <mxGeometry x="1056" y="1285" width="100" height="40" as="geometry" />
        </mxCell>
        <mxCell id="gYn13_rnFWAkC_ZhPSv--15" value="" style="endArrow=classic;html=1;rounded=0;exitX=0.25;exitY=1;exitDx=0;exitDy=0;entryX=0.607;entryY=0.091;entryDx=0;entryDy=0;entryPerimeter=0;" parent="1" source="gYn13_rnFWAkC_ZhPSv--13" target="gYn13_rnFWAkC_ZhPSv--6" edge="1">
          <mxGeometry width="50" height="50" relative="1" as="geometry">
            <mxPoint x="1116" y="1367" as="sourcePoint" />
            <mxPoint x="1166" y="1317" as="targetPoint" />
          </mxGeometry>
        </mxCell>
        <mxCell id="gYn13_rnFWAkC_ZhPSv--17" value="" style="endArrow=classic;html=1;rounded=0;exitX=0.817;exitY=1.068;exitDx=0;exitDy=0;entryX=0.25;entryY=0;entryDx=0;entryDy=0;exitPerimeter=0;" parent="1" source="gYn13_rnFWAkC_ZhPSv--13" target="gYn13_rnFWAkC_ZhPSv--5" edge="1">
          <mxGeometry width="50" height="50" relative="1" as="geometry">
            <mxPoint x="1129" y="1317" as="sourcePoint" />
            <mxPoint x="1106" y="1360" as="targetPoint" />
          </mxGeometry>
        </mxCell>
        <mxCell id="gYn13_rnFWAkC_ZhPSv--18" value="" style="endArrow=classic;html=1;rounded=0;exitX=0.25;exitY=1;exitDx=0;exitDy=0;entryX=0.381;entryY=-0.004;entryDx=0;entryDy=0;entryPerimeter=0;" parent="1" source="gYn13_rnFWAkC_ZhPSv--5" target="gYn13_rnFWAkC_ZhPSv--19" edge="1">
          <mxGeometry width="50" height="50" relative="1" as="geometry">
            <mxPoint x="1066" y="1447" as="sourcePoint" />
            <mxPoint x="1174" y="1427" as="targetPoint" />
          </mxGeometry>
        </mxCell>
        <mxCell id="gYn13_rnFWAkC_ZhPSv--19" value="Approve: Goes Live" style="whiteSpace=wrap;html=1;rounded=0;shadow=1;labelBackgroundColor=none;strokeWidth=1;fontFamily=Verdana;fontSize=8;align=center;" parent="1" vertex="1">
          <mxGeometry x="1216" y="1427" width="110" height="30" as="geometry" />
        </mxCell>
        <mxCell id="gYn13_rnFWAkC_ZhPSv--20" value="" style="endArrow=classic;html=1;rounded=0;exitX=1;exitY=0.5;exitDx=0;exitDy=0;entryX=0;entryY=0.5;entryDx=0;entryDy=0;" parent="1" source="gYn13_rnFWAkC_ZhPSv--5" target="gYn13_rnFWAkC_ZhPSv--21" edge="1">
          <mxGeometry width="50" height="50" relative="1" as="geometry">
            <mxPoint x="1184" y="1397" as="sourcePoint" />
            <mxPoint x="1306" y="1372" as="targetPoint" />
          </mxGeometry>
        </mxCell>
        <mxCell id="gYn13_rnFWAkC_ZhPSv--21" value="Deny: Send Feedback to Host" style="whiteSpace=wrap;html=1;rounded=0;shadow=1;labelBackgroundColor=none;strokeWidth=1;fontFamily=Verdana;fontSize=8;align=center;" parent="1" vertex="1">
          <mxGeometry x="1366" y="1357" width="110" height="30" as="geometry" />
        </mxCell>
        <mxCell id="gYn13_rnFWAkC_ZhPSv--23" value="" style="endArrow=classic;html=1;rounded=0;exitX=0.164;exitY=1.096;exitDx=0;exitDy=0;exitPerimeter=0;entryX=0.573;entryY=0.07;entryDx=0;entryDy=0;entryPerimeter=0;" parent="1" source="gYn13_rnFWAkC_ZhPSv--6" target="gYn13_rnFWAkC_ZhPSv--24" edge="1">
          <mxGeometry width="50" height="50" relative="1" as="geometry">
            <mxPoint x="986" y="1387" as="sourcePoint" />
            <mxPoint x="986" y="1427" as="targetPoint" />
          </mxGeometry>
        </mxCell>
        <mxCell id="gYn13_rnFWAkC_ZhPSv--24" value="Approve/Deny Unique Dispute" style="whiteSpace=wrap;html=1;rounded=0;shadow=1;labelBackgroundColor=none;strokeWidth=1;fontFamily=Verdana;fontSize=8;align=center;" parent="1" vertex="1">
          <mxGeometry x="876" y="1427" width="110" height="30" as="geometry" />
        </mxCell>
        <mxCell id="gYn13_rnFWAkC_ZhPSv--40" value="" style="endArrow=classic;html=1;rounded=0;exitX=0.5;exitY=1;exitDx=0;exitDy=0;entryX=0.5;entryY=0;entryDx=0;entryDy=0;" parent="1" source="60e70716793133e9-2" target="gYn13_rnFWAkC_ZhPSv--8" edge="1">
          <mxGeometry width="50" height="50" relative="1" as="geometry">
            <mxPoint x="876" y="415" as="sourcePoint" />
            <mxPoint x="926" y="365" as="targetPoint" />
          </mxGeometry>
        </mxCell>
        <mxCell id="gYn13_rnFWAkC_ZhPSv--41" value="Login" style="rounded=1;whiteSpace=wrap;html=1;shadow=1;labelBackgroundColor=none;strokeWidth=1;fontFamily=Verdana;fontSize=8;align=center;fillColor=#fff2cc;strokeColor=#d6b656;" parent="1" vertex="1">
          <mxGeometry x="851" y="560" width="100" height="40" as="geometry" />
        </mxCell>
        <mxCell id="gYn13_rnFWAkC_ZhPSv--42" value="Search Properies" style="rounded=1;whiteSpace=wrap;html=1;shadow=1;labelBackgroundColor=none;strokeWidth=1;fontFamily=Verdana;fontSize=8;align=center;fillColor=#fff2cc;strokeColor=#d6b656;" parent="1" vertex="1">
          <mxGeometry x="1426" y="480" width="100" height="40" as="geometry" />
        </mxCell>
        <mxCell id="gYn13_rnFWAkC_ZhPSv--44" value="Host" style="rounded=1;whiteSpace=wrap;html=1;fillColor=#dae8fc;strokeColor=#6c8ebf;" parent="1" vertex="1">
          <mxGeometry x="356" y="1100" width="120" height="60" as="geometry" />
        </mxCell>
        <mxCell id="gYn13_rnFWAkC_ZhPSv--45" value="Admin" style="rounded=1;whiteSpace=wrap;html=1;fillColor=#d5e8d4;strokeColor=#82b366;" parent="1" vertex="1">
          <mxGeometry x="851" y="1125" width="120" height="60" as="geometry" />
        </mxCell>
        <mxCell id="gYn13_rnFWAkC_ZhPSv--46" value="Customer" style="rounded=1;whiteSpace=wrap;html=1;fillColor=#f8cecc;strokeColor=#b85450;" parent="1" vertex="1">
          <mxGeometry x="1306" y="1090" width="120" height="60" as="geometry" />
        </mxCell>
        <mxCell id="gYn13_rnFWAkC_ZhPSv--48" value="Register" style="rounded=1;whiteSpace=wrap;html=1;shadow=1;labelBackgroundColor=none;strokeWidth=1;fontFamily=Verdana;fontSize=8;align=center;fillColor=#fff2cc;strokeColor=#d6b656;" parent="1" vertex="1">
          <mxGeometry x="1236" y="540" width="100" height="40" as="geometry" />
        </mxCell>
        <mxCell id="gYn13_rnFWAkC_ZhPSv--49" value="" style="endArrow=classic;html=1;rounded=0;exitX=0.5;exitY=1;exitDx=0;exitDy=0;entryX=0.5;entryY=0;entryDx=0;entryDy=0;" parent="1" target="gYn13_rnFWAkC_ZhPSv--45" edge="1">
          <mxGeometry width="50" height="50" relative="1" as="geometry">
            <mxPoint x="910.9999999999995" y="1070" as="sourcePoint" />
            <mxPoint x="456" y="1090" as="targetPoint" />
          </mxGeometry>
        </mxCell>
        <mxCell id="gYn13_rnFWAkC_ZhPSv--60" value="" style="endArrow=classic;html=1;rounded=0;exitX=0;exitY=1;exitDx=0;exitDy=0;entryX=0.5;entryY=0;entryDx=0;entryDy=0;" parent="1" source="gYn13_rnFWAkC_ZhPSv--8" target="gYn13_rnFWAkC_ZhPSv--41" edge="1">
          <mxGeometry width="50" height="50" relative="1" as="geometry">
            <mxPoint x="1346" y="540" as="sourcePoint" />
            <mxPoint x="896" y="580" as="targetPoint" />
          </mxGeometry>
        </mxCell>
        <mxCell id="gYn13_rnFWAkC_ZhPSv--61" value="" style="endArrow=classic;html=1;rounded=0;exitX=0.5;exitY=1;exitDx=0;exitDy=0;entryX=0.5;entryY=0;entryDx=0;entryDy=0;" parent="1" source="gYn13_rnFWAkC_ZhPSv--8" target="gYn13_rnFWAkC_ZhPSv--48" edge="1">
          <mxGeometry width="50" height="50" relative="1" as="geometry">
            <mxPoint x="1346" y="540" as="sourcePoint" />
            <mxPoint x="1396" y="490" as="targetPoint" />
          </mxGeometry>
        </mxCell>
        <mxCell id="gYn13_rnFWAkC_ZhPSv--62" value="" style="endArrow=classic;html=1;rounded=0;exitX=1;exitY=0.75;exitDx=0;exitDy=0;entryX=0;entryY=0;entryDx=0;entryDy=0;" parent="1" source="gYn13_rnFWAkC_ZhPSv--8" target="gYn13_rnFWAkC_ZhPSv--42" edge="1">
          <mxGeometry width="50" height="50" relative="1" as="geometry">
            <mxPoint x="1346" y="540" as="sourcePoint" />
            <mxPoint x="1396" y="490" as="targetPoint" />
          </mxGeometry>
        </mxCell>
        <mxCell id="gYn13_rnFWAkC_ZhPSv--63" value="" style="endArrow=classic;html=1;rounded=0;exitX=0.5;exitY=1;exitDx=0;exitDy=0;entryX=1;entryY=0;entryDx=0;entryDy=0;" parent="1" source="gYn13_rnFWAkC_ZhPSv--44" edge="1">
          <mxGeometry width="50" height="50" relative="1" as="geometry">
            <mxPoint x="416" y="1170" as="sourcePoint" />
            <mxPoint x="391" y="1192" as="targetPoint" />
          </mxGeometry>
        </mxCell>
        <mxCell id="gYn13_rnFWAkC_ZhPSv--64" value="" style="endArrow=classic;html=1;rounded=0;exitX=0.25;exitY=1;exitDx=0;exitDy=0;entryX=0.5;entryY=0;entryDx=0;entryDy=0;" parent="1" source="gYn13_rnFWAkC_ZhPSv--45" target="Z8Qo_mUcmgDimk4ZtV1X-5" edge="1">
          <mxGeometry width="50" height="50" relative="1" as="geometry">
            <mxPoint x="566" y="1280" as="sourcePoint" />
            <mxPoint x="616" y="1230" as="targetPoint" />
          </mxGeometry>
        </mxCell>
        <mxCell id="gYn13_rnFWAkC_ZhPSv--65" value="" style="endArrow=classic;html=1;rounded=0;exitX=1;exitY=0.5;exitDx=0;exitDy=0;entryX=0;entryY=0.5;entryDx=0;entryDy=0;" parent="1" source="gYn13_rnFWAkC_ZhPSv--46" target="60e70716793133e9-5" edge="1">
          <mxGeometry width="50" height="50" relative="1" as="geometry">
            <mxPoint x="1806" y="1220" as="sourcePoint" />
            <mxPoint x="1856" y="1170" as="targetPoint" />
          </mxGeometry>
        </mxCell>
        <mxCell id="gYn13_rnFWAkC_ZhPSv--66" value="" style="endArrow=classic;html=1;rounded=0;entryX=0;entryY=0.5;entryDx=0;entryDy=0;" parent="1" source="60e70716793133e9-5" target="Z8Qo_mUcmgDimk4ZtV1X-17" edge="1">
          <mxGeometry width="50" height="50" relative="1" as="geometry">
            <mxPoint x="1726" y="1240" as="sourcePoint" />
            <mxPoint x="1776" y="1190" as="targetPoint" />
          </mxGeometry>
        </mxCell>
        <mxCell id="gYn13_rnFWAkC_ZhPSv--67" value="" style="endArrow=classic;html=1;rounded=0;exitX=1;exitY=0.5;exitDx=0;exitDy=0;entryX=0;entryY=0.5;entryDx=0;entryDy=0;" parent="1" source="Z8Qo_mUcmgDimk4ZtV1X-17" target="gYn13_rnFWAkC_ZhPSv--72" edge="1">
          <mxGeometry width="50" height="50" relative="1" as="geometry">
            <mxPoint x="1726" y="1240" as="sourcePoint" />
            <mxPoint x="1944" y="1290" as="targetPoint" />
          </mxGeometry>
        </mxCell>
        <mxCell id="gYn13_rnFWAkC_ZhPSv--68" value="Register View" style="ellipse;whiteSpace=wrap;html=1;aspect=fixed;fillColor=#fff2cc;strokeColor=#d6b656;" parent="1" vertex="1">
          <mxGeometry x="1326" y="620" width="80" height="80" as="geometry" />
        </mxCell>
        <mxCell id="gYn13_rnFWAkC_ZhPSv--69" value="" style="endArrow=classic;html=1;rounded=0;exitX=0.5;exitY=1;exitDx=0;exitDy=0;" parent="1" source="gYn13_rnFWAkC_ZhPSv--48" target="gYn13_rnFWAkC_ZhPSv--68" edge="1">
          <mxGeometry width="50" height="50" relative="1" as="geometry">
            <mxPoint x="1556" y="520" as="sourcePoint" />
            <mxPoint x="1606" y="470" as="targetPoint" />
          </mxGeometry>
        </mxCell>
        <mxCell id="gYn13_rnFWAkC_ZhPSv--70" value="Detailed Search" style="rounded=1;whiteSpace=wrap;html=1;shadow=1;labelBackgroundColor=none;strokeWidth=1;fontFamily=Verdana;fontSize=8;align=center;fillColor=#fff2cc;strokeColor=#d6b656;" parent="1" vertex="1">
          <mxGeometry x="1556" y="480" width="100" height="40" as="geometry" />
        </mxCell>
        <mxCell id="gYn13_rnFWAkC_ZhPSv--71" value="Reserve Property" style="rounded=1;whiteSpace=wrap;html=1;fillColor=#fff2cc;strokeColor=#d6b656;" parent="1" vertex="1">
          <mxGeometry x="1486" y="590" width="120" height="60" as="geometry" />
        </mxCell>
        <mxCell id="gYn13_rnFWAkC_ZhPSv--72" value="Reservations View" style="ellipse;whiteSpace=wrap;html=1;aspect=fixed;" parent="1" vertex="1">
          <mxGeometry x="2106" y="1250" width="80" height="80" as="geometry" />
        </mxCell>
        <mxCell id="gYn13_rnFWAkC_ZhPSv--76" value="Click Reserve Property" style="rounded=1;whiteSpace=wrap;html=1;" parent="1" vertex="1">
          <mxGeometry x="2166" y="1145" width="110" height="40" as="geometry" />
        </mxCell>
        <mxCell id="gYn13_rnFWAkC_ZhPSv--78" value="" style="endArrow=classic;html=1;rounded=0;exitX=1;exitY=0.5;exitDx=0;exitDy=0;entryX=0;entryY=0.5;entryDx=0;entryDy=0;" parent="1" source="60e70716793133e9-8" target="gYn13_rnFWAkC_ZhPSv--76" edge="1">
          <mxGeometry width="50" height="50" relative="1" as="geometry">
            <mxPoint x="2126" y="1260" as="sourcePoint" />
            <mxPoint x="2176" y="1210" as="targetPoint" />
          </mxGeometry>
        </mxCell>
        <mxCell id="gYn13_rnFWAkC_ZhPSv--81" value="Added to cart" style="rounded=1;whiteSpace=wrap;html=1;" parent="1" vertex="1">
          <mxGeometry x="2356" y="1145" width="120" height="40" as="geometry" />
        </mxCell>
        <mxCell id="gYn13_rnFWAkC_ZhPSv--82" value="Yes" style="text;html=1;align=center;verticalAlign=middle;resizable=0;points=[];autosize=1;strokeColor=none;fillColor=none;" parent="1" vertex="1">
          <mxGeometry x="2296" y="1140" width="40" height="30" as="geometry" />
        </mxCell>
        <mxCell id="gYn13_rnFWAkC_ZhPSv--85" value="" style="endArrow=classic;html=1;rounded=0;exitX=1;exitY=0.5;exitDx=0;exitDy=0;entryX=0;entryY=0.5;entryDx=0;entryDy=0;" parent="1" source="gYn13_rnFWAkC_ZhPSv--76" target="gYn13_rnFWAkC_ZhPSv--81" edge="1">
          <mxGeometry width="50" height="50" relative="1" as="geometry">
            <mxPoint x="2356" y="1230" as="sourcePoint" />
            <mxPoint x="2406" y="1180" as="targetPoint" />
          </mxGeometry>
        </mxCell>
        <mxCell id="gYn13_rnFWAkC_ZhPSv--86" value="" style="endArrow=classic;html=1;rounded=0;exitX=0.5;exitY=1;exitDx=0;exitDy=0;entryX=0.5;entryY=0;entryDx=0;entryDy=0;" parent="1" source="gYn13_rnFWAkC_ZhPSv--81" target="gYn13_rnFWAkC_ZhPSv--87" edge="1">
          <mxGeometry width="50" height="50" relative="1" as="geometry">
            <mxPoint x="2516" y="1170" as="sourcePoint" />
            <mxPoint x="2536" y="1165" as="targetPoint" />
          </mxGeometry>
        </mxCell>
        <mxCell id="gYn13_rnFWAkC_ZhPSv--87" value="Checkout?" style="rounded=1;whiteSpace=wrap;html=1;" parent="1" vertex="1">
          <mxGeometry x="2356" y="1220" width="120" height="40" as="geometry" />
        </mxCell>
        <mxCell id="gYn13_rnFWAkC_ZhPSv--88" value="Checkout Payment View" style="rounded=1;whiteSpace=wrap;html=1;" parent="1" vertex="1">
          <mxGeometry x="2356" y="1297" width="120" height="40" as="geometry" />
        </mxCell>
        <mxCell id="gYn13_rnFWAkC_ZhPSv--89" value="No" style="text;html=1;align=center;verticalAlign=middle;resizable=0;points=[];autosize=1;strokeColor=none;fillColor=none;" parent="1" vertex="1">
          <mxGeometry x="2506" y="1218" width="40" height="30" as="geometry" />
        </mxCell>
        <mxCell id="gYn13_rnFWAkC_ZhPSv--90" value="Continue Shopping" style="rounded=1;whiteSpace=wrap;html=1;" parent="1" vertex="1">
          <mxGeometry x="2566" y="1220" width="120" height="40" as="geometry" />
        </mxCell>
        <mxCell id="gYn13_rnFWAkC_ZhPSv--91" value="Yes" style="text;html=1;align=center;verticalAlign=middle;resizable=0;points=[];autosize=1;strokeColor=none;fillColor=none;" parent="1" vertex="1">
          <mxGeometry x="2426" y="1260" width="40" height="30" as="geometry" />
        </mxCell>
        <mxCell id="gYn13_rnFWAkC_ZhPSv--92" value="Yes" style="text;html=1;align=center;verticalAlign=middle;resizable=0;points=[];autosize=1;strokeColor=none;fillColor=none;" parent="1" vertex="1">
          <mxGeometry x="2636" y="1258" width="40" height="30" as="geometry" />
        </mxCell>
        <mxCell id="gYn13_rnFWAkC_ZhPSv--93" value="Properties View" style="rounded=1;whiteSpace=wrap;html=1;" parent="1" vertex="1">
          <mxGeometry x="2566" y="1310" width="120" height="40" as="geometry" />
        </mxCell>
        <mxCell id="gYn13_rnFWAkC_ZhPSv--94" value="" style="endArrow=classic;html=1;rounded=0;exitX=0.5;exitY=1;exitDx=0;exitDy=0;entryX=0.5;entryY=0;entryDx=0;entryDy=0;" parent="1" source="gYn13_rnFWAkC_ZhPSv--90" target="gYn13_rnFWAkC_ZhPSv--93" edge="1">
          <mxGeometry width="50" height="50" relative="1" as="geometry">
            <mxPoint x="2526" y="1320" as="sourcePoint" />
            <mxPoint x="2576" y="1270" as="targetPoint" />
          </mxGeometry>
        </mxCell>
        <mxCell id="gYn13_rnFWAkC_ZhPSv--98" value="" style="endArrow=classic;html=1;rounded=0;exitX=1;exitY=0.5;exitDx=0;exitDy=0;entryX=0;entryY=0.5;entryDx=0;entryDy=0;" parent="1" source="gYn13_rnFWAkC_ZhPSv--87" target="gYn13_rnFWAkC_ZhPSv--90" edge="1">
          <mxGeometry width="50" height="50" relative="1" as="geometry">
            <mxPoint x="2496" y="1320" as="sourcePoint" />
            <mxPoint x="2546" y="1270" as="targetPoint" />
          </mxGeometry>
        </mxCell>
        <mxCell id="gYn13_rnFWAkC_ZhPSv--99" value="" style="endArrow=classic;html=1;rounded=0;exitX=0.5;exitY=1;exitDx=0;exitDy=0;entryX=0.5;entryY=0;entryDx=0;entryDy=0;" parent="1" source="gYn13_rnFWAkC_ZhPSv--87" target="gYn13_rnFWAkC_ZhPSv--88" edge="1">
          <mxGeometry width="50" height="50" relative="1" as="geometry">
            <mxPoint x="2496" y="1320" as="sourcePoint" />
            <mxPoint x="2546" y="1270" as="targetPoint" />
          </mxGeometry>
        </mxCell>
        <mxCell id="gYn13_rnFWAkC_ZhPSv--102" value="Confirmed/Thank you" style="rounded=1;whiteSpace=wrap;html=1;" parent="1" vertex="1">
          <mxGeometry x="2356" y="1370" width="120" height="40" as="geometry" />
        </mxCell>
        <mxCell id="gYn13_rnFWAkC_ZhPSv--103" value="" style="endArrow=classic;html=1;rounded=0;exitX=0.5;exitY=1;exitDx=0;exitDy=0;entryX=0.5;entryY=0;entryDx=0;entryDy=0;" parent="1" source="gYn13_rnFWAkC_ZhPSv--88" target="gYn13_rnFWAkC_ZhPSv--102" edge="1">
          <mxGeometry width="50" height="50" relative="1" as="geometry">
            <mxPoint x="2636" y="1270" as="sourcePoint" />
            <mxPoint x="2636" y="1320" as="targetPoint" />
          </mxGeometry>
        </mxCell>
        <mxCell id="gYn13_rnFWAkC_ZhPSv--104" value="Yes" style="text;html=1;align=center;verticalAlign=middle;resizable=0;points=[];autosize=1;strokeColor=none;fillColor=none;" parent="1" vertex="1">
          <mxGeometry x="2426" y="1346" width="40" height="30" as="geometry" />
        </mxCell>
        <mxCell id="gYn13_rnFWAkC_ZhPSv--105" value="" style="endArrow=classic;html=1;rounded=0;exitX=1;exitY=0.5;exitDx=0;exitDy=0;entryX=0;entryY=1;entryDx=0;entryDy=0;" parent="1" source="gYn13_rnFWAkC_ZhPSv--102" target="gYn13_rnFWAkC_ZhPSv--90" edge="1">
          <mxGeometry width="50" height="50" relative="1" as="geometry">
            <mxPoint x="2566" y="1370" as="sourcePoint" />
            <mxPoint x="2616" y="1320" as="targetPoint" />
          </mxGeometry>
        </mxCell>
        <mxCell id="gYn13_rnFWAkC_ZhPSv--106" value="SUCCESFUL User Login" style="rounded=1;whiteSpace=wrap;html=1;" parent="1" vertex="1">
          <mxGeometry x="956" y="755" width="120" height="60" as="geometry" />
        </mxCell>
        <mxCell id="gYn13_rnFWAkC_ZhPSv--107" value="" style="endArrow=classic;html=1;rounded=0;exitX=0.5;exitY=1;exitDx=0;exitDy=0;entryX=0.5;entryY=0;entryDx=0;entryDy=0;" parent="1" source="gYn13_rnFWAkC_ZhPSv--41" target="gYn13_rnFWAkC_ZhPSv--106" edge="1">
          <mxGeometry width="50" height="50" relative="1" as="geometry">
            <mxPoint x="1066" y="800" as="sourcePoint" />
            <mxPoint x="1116" y="750" as="targetPoint" />
          </mxGeometry>
        </mxCell>
        <mxCell id="gYn13_rnFWAkC_ZhPSv--109" value="" style="endArrow=classic;html=1;rounded=0;exitX=0.5;exitY=1;exitDx=0;exitDy=0;entryX=0.5;entryY=0;entryDx=0;entryDy=0;" parent="1" source="gYn13_rnFWAkC_ZhPSv--106" edge="1">
          <mxGeometry width="50" height="50" relative="1" as="geometry">
            <mxPoint x="896" y="720" as="sourcePoint" />
            <mxPoint x="1010.9999999999995" y="850" as="targetPoint" />
          </mxGeometry>
        </mxCell>
        <mxCell id="gYn13_rnFWAkC_ZhPSv--114" value="" style="endArrow=classic;html=1;rounded=0;entryX=0;entryY=0.5;entryDx=0;entryDy=0;exitX=0.504;exitY=0.047;exitDx=0;exitDy=0;exitPerimeter=0;" parent="1" source="gYn13_rnFWAkC_ZhPSv--113" target="gYn13_rnFWAkC_ZhPSv--48" edge="1">
          <mxGeometry width="50" height="50" relative="1" as="geometry">
            <mxPoint x="1046" y="650" as="sourcePoint" />
            <mxPoint x="1066" y="670" as="targetPoint" />
            <Array as="points" />
          </mxGeometry>
        </mxCell>
        <mxCell id="gYn13_rnFWAkC_ZhPSv--115" value="" style="endArrow=classic;html=1;rounded=0;exitX=1;exitY=0.25;exitDx=0;exitDy=0;entryX=0;entryY=0.5;entryDx=0;entryDy=0;" parent="1" source="gYn13_rnFWAkC_ZhPSv--106" target="gYn13_rnFWAkC_ZhPSv--113" edge="1">
          <mxGeometry width="50" height="50" relative="1" as="geometry">
            <mxPoint x="956" y="675" as="sourcePoint" />
            <mxPoint x="1466" y="410" as="targetPoint" />
          </mxGeometry>
        </mxCell>
        <mxCell id="gYn13_rnFWAkC_ZhPSv--113" value="&lt;font style=&quot;font-size: 19px;&quot;&gt;No&lt;/font&gt;" style="text;html=1;align=center;verticalAlign=middle;resizable=0;points=[];autosize=1;strokeColor=none;fillColor=none;strokeWidth=3;" parent="1" vertex="1">
          <mxGeometry x="1146" y="640" width="50" height="40" as="geometry" />
        </mxCell>
        <mxCell id="gYn13_rnFWAkC_ZhPSv--116" value="" style="endArrow=classic;html=1;rounded=0;exitX=0.5;exitY=1;exitDx=0;exitDy=0;entryX=0.067;entryY=-0.002;entryDx=0;entryDy=0;entryPerimeter=0;" parent="1" source="gYn13_rnFWAkC_ZhPSv--42" target="gYn13_rnFWAkC_ZhPSv--71" edge="1">
          <mxGeometry width="50" height="50" relative="1" as="geometry">
            <mxPoint x="2216" y="570" as="sourcePoint" />
            <mxPoint x="2256" y="510" as="targetPoint" />
          </mxGeometry>
        </mxCell>
        <mxCell id="gYn13_rnFWAkC_ZhPSv--117" value="" style="endArrow=classic;html=1;rounded=0;exitX=0.6;exitY=1;exitDx=0;exitDy=0;exitPerimeter=0;entryX=0.82;entryY=0.035;entryDx=0;entryDy=0;entryPerimeter=0;" parent="1" source="gYn13_rnFWAkC_ZhPSv--70" target="gYn13_rnFWAkC_ZhPSv--71" edge="1">
          <mxGeometry width="50" height="50" relative="1" as="geometry">
            <mxPoint x="1496" y="650" as="sourcePoint" />
            <mxPoint x="1546" y="600" as="targetPoint" />
          </mxGeometry>
        </mxCell>
        <mxCell id="gYn13_rnFWAkC_ZhPSv--121" value="" style="endArrow=classic;html=1;rounded=0;exitX=1;exitY=0;exitDx=0;exitDy=0;entryX=0;entryY=0.75;entryDx=0;entryDy=0;" parent="1" source="gYn13_rnFWAkC_ZhPSv--72" target="gYn13_rnFWAkC_ZhPSv--81" edge="1">
          <mxGeometry width="50" height="50" relative="1" as="geometry">
            <mxPoint x="2066" y="1250" as="sourcePoint" />
            <mxPoint x="2116" y="1200" as="targetPoint" />
          </mxGeometry>
        </mxCell>
        <mxCell id="gYn13_rnFWAkC_ZhPSv--126" value="" style="endArrow=classic;html=1;rounded=0;exitX=0.5;exitY=1;exitDx=0;exitDy=0;entryX=1;entryY=0.75;entryDx=0;entryDy=0;" parent="1" source="gYn13_rnFWAkC_ZhPSv--68" target="gYn13_rnFWAkC_ZhPSv--106" edge="1">
          <mxGeometry width="50" height="50" relative="1" as="geometry">
            <mxPoint x="1106" y="830" as="sourcePoint" />
            <mxPoint x="1156" y="780" as="targetPoint" />
          </mxGeometry>
        </mxCell>
        <mxCell id="gYn13_rnFWAkC_ZhPSv--136" value="&lt;font style=&quot;font-size: 28px;&quot;&gt;Unauthorized User&lt;/font&gt;" style="rounded=0;whiteSpace=wrap;html=1;fillColor=#fff2cc;strokeColor=#d6b656;" parent="1" vertex="1">
          <mxGeometry x="2490" y="80" width="290" height="80" as="geometry" />
        </mxCell>
        <mxCell id="gYn13_rnFWAkC_ZhPSv--137" value="&lt;font style=&quot;font-size: 28px;&quot;&gt;Customer User&lt;/font&gt;" style="rounded=0;whiteSpace=wrap;html=1;fillColor=#f8cecc;strokeColor=#b85450;" parent="1" vertex="1">
          <mxGeometry x="2490" y="200" width="290" height="60" as="geometry" />
        </mxCell>
        <mxCell id="gYn13_rnFWAkC_ZhPSv--138" value="&lt;span style=&quot;font-size: 28px;&quot;&gt;Admin User&lt;/span&gt;" style="rounded=0;whiteSpace=wrap;html=1;fillColor=#d5e8d4;strokeColor=#82b366;" parent="1" vertex="1">
          <mxGeometry x="2480" y="330" width="320" height="55" as="geometry" />
        </mxCell>
        <mxCell id="gYn13_rnFWAkC_ZhPSv--139" value="&lt;span style=&quot;font-size: 28px;&quot;&gt;Host&lt;/span&gt;" style="rounded=0;whiteSpace=wrap;html=1;fillColor=#dae8fc;strokeColor=#6c8ebf;" parent="1" vertex="1">
          <mxGeometry x="2480" y="425" width="320" height="60" as="geometry" />
        </mxCell>
        <mxCell id="fRhte83UtmDvdU7O5lQr-1" value="Yes" style="text;html=1;align=center;verticalAlign=middle;resizable=0;points=[];autosize=1;strokeColor=none;fillColor=none;" parent="1" vertex="1">
          <mxGeometry x="1706" y="1207" width="40" height="30" as="geometry" />
        </mxCell>
        <mxCell id="fRhte83UtmDvdU7O5lQr-5" value="" style="endArrow=classic;html=1;rounded=0;exitX=0.5;exitY=1;exitDx=0;exitDy=0;entryX=0.431;entryY=0.044;entryDx=0;entryDy=0;entryPerimeter=0;" parent="1" source="gYn13_rnFWAkC_ZhPSv--13" target="fRhte83UtmDvdU7O5lQr-6" edge="1">
          <mxGeometry width="50" height="50" relative="1" as="geometry">
            <mxPoint x="1102.5" y="1327" as="sourcePoint" />
            <mxPoint x="1106" y="1370" as="targetPoint" />
          </mxGeometry>
        </mxCell>
        <mxCell id="fRhte83UtmDvdU7O5lQr-6" value="Manage Users" style="whiteSpace=wrap;html=1;rounded=0;shadow=1;labelBackgroundColor=none;strokeWidth=1;fontFamily=Verdana;fontSize=8;align=center;" parent="1" vertex="1">
          <mxGeometry x="1076" y="1357" width="110" height="30" as="geometry" />
        </mxCell>
        <mxCell id="JM0TwJEqlJdNiC089bPI-5" value="Dat Ly&lt;div&gt;Karla&lt;/div&gt;&lt;div&gt;Sophia&lt;/div&gt;" style="strokeWidth=1;shadow=0;dashed=0;align=center;html=1;shape=mxgraph.mockup.text.textBox;fontColor=#666666;align=left;fontSize=17;spacingLeft=4;spacingTop=-3;whiteSpace=wrap;strokeColor=#666666;mainText=" parent="1" vertex="1">
          <mxGeometry x="450" y="610" width="150" height="130" as="geometry" />
        </mxCell>
      </root>
    </mxGraphModel>
  </diagram>
</mxfile>
